<?xml version="1.0" encoding="UTF-8"?>
<svg version="1.1" xmlns="http://www.w3.org/2000/svg" width="58" height="63">
<path d="M0 0 C17.16 0 34.32 0 52 0 C52 5.94 52 11.88 52 18 C50.35 18 48.7 18 47 18 C47 16.68 47 15.36 47 14 C37.1 14 27.2 14 17 14 C17 15.65 17 17.3 17 19 C15.68 19 14.36 19 13 19 C13 21.64 13 24.28 13 27 C25.87 27 38.74 27 52 27 C52 29.64 52 32.28 52 35 C39.13 35 26.26 35 13 35 C13 36.98 13 38.96 13 41 C14.32 41 15.64 41 17 41 C17 42.32 17 43.64 17 45 C26.9 45 36.8 45 47 45 C47 43.35 47 41.7 47 40 C48.65 40 50.3 40 52 40 C52 46.27 52 52.54 52 59 C34.84 59 17.68 59 0 59 C0 39.53 0 20.06 0 0 Z " fill="#245770" transform="translate(3,2)"/>
<path d="M0 0 C12.21 0 24.42 0 37 0 C37 0.99 37 1.98 37 3 C37.99 3 38.98 3 40 3 C40 4.98 40 6.96 40 9 C38.35 9 36.7 9 35 9 C35 7.68 35 6.36 35 5 C25.1 5 15.2 5 5 5 C5 6.65 5 8.3 5 10 C3.68 10 2.36 10 1 10 C1 12.64 1 15.28 1 18 C13.87 18 26.74 18 40 18 C40 20.64 40 23.28 40 26 C27.13 26 14.26 26 1 26 C1 27.98 1 29.96 1 32 C2.32 32 3.64 32 5 32 C5 33.32 5 34.64 5 36 C14.9 36 24.8 36 35 36 C35 34.35 35 32.7 35 31 C36.65 31 38.3 31 40 31 C40 33.31 40 35.62 40 38 C39.01 38 38.02 38 37 38 C37 38.99 37 39.98 37 41 C24.79 41 12.58 41 0 41 C0 40.01 0 39.02 0 38 C-1.32 38 -2.64 38 -4 38 C-4 26.45 -4 14.9 -4 3 C-2.68 3 -1.36 3 0 3 C0 2.01 0 1.02 0 0 Z " fill="#254656" transform="translate(15,11)"/>
</svg>
